<svg xmlns="http://www.w3.org/2000/svg" viewBox="0 0 1665.99 455.67">
  <path d="M191,356.33c0-128.77,84.53-227.83,214-227.83,128.77,0,214,99.06,214,227.83S533.74,584.17,405,584.17C275.53,584.17,191,485.11,191,356.33Zm388.31,0c0-112.26-68.68-193.49-174.34-193.49-107,0-174.34,81.23-174.34,193.49,0,111,67.36,193.49,174.34,193.49C510.63,549.82,579.31,467.28,579.31,356.33Z" transform="translate(-191 -128.5)"/>
  <path d="M710.68,576.24v-319H745v54.81c27.08-35.66,63.4-61.42,107.65-61.42v37.65C846.72,287,842.09,287,835.49,287c-32.36,0-75.94,29.06-90.48,56.8V576.24Z" transform="translate(-191 -128.5)"/>
  <path d="M920,576.24V135.76h34.34v173c25.76-36.32,66-59.43,110.94-59.43,85.19,0,142.64,66.7,142.64,167.74,0,102.36-58.11,167.08-142.64,167.08-47.55,0-88.49-25.76-110.94-58.78v50.85Zm139.34-23.11c71.32,0,111.6-58.78,111.6-136s-40.28-136.7-111.6-136.7c-44.25,0-86.51,27.74-105,58.11V496.33C972.82,526.71,1015.08,553.13,1059.33,553.13Z" transform="translate(-191 -128.5)"/>
  <path d="M1287.79,180.67c0-14.53,12.54-25.75,26.41-25.75,14.53,0,26.42,11.22,26.42,25.75a26.5,26.5,0,0,1-26.42,26.42C1300.33,207.09,1287.79,195.2,1287.79,180.67ZM1297,576.24v-319h34.34v319Z" transform="translate(-191 -128.5)"/>
  <path d="M1444.94,514.82V287.65h-52.83V257.28h52.83V170.11h35v87.17h64.72v30.37h-64.72V509.54c0,25.76,10.57,43.59,33,43.59,15.19,0,28.4-7.27,35.66-15.19l13.21,26.42c-12.55,11.88-27.74,19.81-54.15,19.81C1465.41,584.17,1444.94,558.41,1444.94,514.82Z" transform="translate(-191 -128.5)"/>
  <path d="M1822.66,576.24V538.6c-28.4,31-64.06,45.57-108.31,45.57-54.81,0-111.6-37.65-111.6-106.33,0-69.34,56.13-105.66,111.6-105.66,44.25,0,80.57,14.53,108.31,45.57V353c0-47.55-38.3-73.3-85.85-73.3-39.62,0-70.66,13.86-99.72,46.89l-19.15-23.78c33-35.66,70-53.49,122.83-53.49,64.72,0,116.23,31,116.23,102.36V576.24Zm0-62.74v-70c-22.46-29.05-58.11-44.24-96.42-44.24-52.83,0-87.17,33.68-87.17,79.25,0,44.9,34.34,78.58,87.17,78.58C1764.55,557.09,1800.2,542.56,1822.66,513.5Z" transform="translate(-191 -128.5)"/>
</svg>
