<svg xmlns="http://www.w3.org/2000/svg"><symbol id="default_avatar" viewBox="0 0 100 125">
  <g><path d="M49.289,18.511c-10.796,0.251-21.196,5.86-27.005,15.74c-7.736,13.2-4.647,29.583,6.461,39.294   c0.028,0,0.057,0,0.057,0.028c1.048,0.921,2.182,1.786,3.372,2.567c0.595,0.418,1.19,0.781,1.842,1.144   c1.842,1.061,3.769,1.87,5.724,2.54c0.425,0.14,0.878,0.279,1.332,0.419c0.907,0.251,1.813,0.474,2.72,0.67   c0.935,0.167,1.871,0.307,2.777,0.418c0.34,0.028,0.68,0.056,1.02,0.084c0.283,0.027,0.567,0.027,0.85,0.056   c0.255,0,0.453,0.028,0.68,0.028c0.085,0,0.17,0,0.255,0c0.963,0,1.899,0,2.862-0.084c0.454-0.028,0.936-0.056,1.389-0.111   c0.283-0.028,0.538-0.057,0.822-0.112c0.283-0.027,0.566-0.083,0.821-0.111c1.021-0.167,2.012-0.391,3.004-0.642   c0.312-0.084,0.623-0.168,0.964-0.279c0.17-0.056,0.34-0.111,0.51-0.168c0.481-0.139,0.964-0.307,1.445-0.502   c0.255-0.084,0.538-0.195,0.793-0.279c0.198-0.083,0.426-0.195,0.652-0.278c0.396-0.168,0.821-0.363,1.246-0.559   c0.028-0.028,0.086-0.028,0.143-0.056c0.227-0.111,0.425-0.224,0.651-0.308c0.057-0.027,0.085-0.056,0.142-0.083   c0.396-0.195,0.794-0.419,1.19-0.643c0.453-0.251,0.906-0.53,1.332-0.809c0.453-0.279,0.85-0.559,1.274-0.865   c0.397-0.279,0.766-0.53,1.134-0.81c0.028-0.028,0.085-0.056,0.113-0.111c0.227-0.168,0.453-0.335,0.652-0.503   c0.17-0.14,0.368-0.307,0.538-0.446c0.227-0.195,0.425-0.391,0.651-0.586c0.369-0.363,0.766-0.726,1.134-1.089   c0.312-0.307,0.623-0.642,0.907-0.948c0.057-0.084,0.113-0.111,0.17-0.195c0.113-0.112,0.227-0.224,0.34-0.363   c0.227-0.278,0.453-0.558,0.68-0.837c0.085-0.084,0.17-0.195,0.255-0.279c0.057-0.056,0.085-0.14,0.143-0.195   c0.85-1.116,1.672-2.261,2.38-3.488c8.841-15.042,3.57-34.355-11.703-43.034C60.737,19.739,54.956,18.371,49.289,18.511   L49.289,18.511z M49.345,20.073c5.384-0.111,10.853,1.172,15.84,4.019c14.565,8.261,19.524,26.568,11.137,40.885   c-0.538,0.893-1.134,1.758-1.729,2.596c-5.327-7.759-14.367-12.866-24.597-12.866c-10.23,0-19.241,5.107-24.597,12.894   c-6.83-9.293-7.906-21.992-1.729-32.541C29.197,25.655,39.087,20.297,49.345,20.073L49.345,20.073z M49.997,23.59   c-7.056,0-11.505,4.493-11.505,9.963c0,3.74,0.85,8.289,2.664,12c1.813,3.74,4.732,6.726,8.813,6.837c0.028,0,0.028,0,0.057,0   c4.08-0.111,6.999-3.098,8.813-6.837c1.842-3.712,2.692-8.261,2.692-12C61.53,28.083,57.053,23.59,49.997,23.59L49.997,23.59z    M49.997,25.153c6.404,0,9.918,3.739,9.918,8.4c0,3.489-0.821,7.87-2.522,11.303c-1.672,3.433-4.08,5.861-7.367,5.972   c-0.028,0-0.028,0-0.057,0c-3.287-0.111-5.696-2.54-7.368-5.972s-2.522-7.814-2.522-11.303   C40.079,28.892,43.621,25.153,49.997,25.153L49.997,25.153z M49.997,56.298c9.89,0,18.532,5.023,23.548,12.587   c-1.416,1.729-3.031,3.293-4.846,4.716c-0.368,0.279-0.736,0.53-1.104,0.81c0,0,0,0-0.028,0.028   c-0.142,0.083-0.283,0.195-0.426,0.278c-0.227,0.168-0.481,0.308-0.708,0.475c-0.17,0.111-0.368,0.224-0.538,0.335   c-0.227,0.111-0.454,0.279-0.709,0.391c-0.17,0.111-0.368,0.224-0.566,0.335c-0.227,0.111-0.453,0.224-0.68,0.335   c-0.199,0.111-0.397,0.224-0.624,0.335c-0.198,0.084-0.396,0.195-0.623,0.279c-0.227,0.111-0.454,0.195-0.709,0.307   c-0.34,0.14-0.68,0.279-1.02,0.419c-0.085,0.027-0.198,0.083-0.313,0.111c-0.17,0.084-0.34,0.111-0.51,0.195   c-0.283,0.084-0.566,0.195-0.878,0.279c-0.142,0.056-0.284,0.084-0.426,0.14c-0.312,0.083-0.623,0.167-0.963,0.251   c-0.454,0.111-0.907,0.251-1.389,0.362c0,0-0.028-0.027-0.028,0c-0.085,0-0.17,0.028-0.227,0.028   c-0.396,0.084-0.794,0.167-1.219,0.224c-0.028,0-0.057,0.027-0.085,0.027c-0.538,0.084-1.077,0.14-1.615,0.195   c-0.34,0.056-0.68,0.084-1.049,0.112c-0.425,0.027-0.878,0.056-1.303,0.056c-0.454,0.027-0.907,0.027-1.333,0   c-0.453,0-0.878,0-1.332-0.028c-0.425-0.027-0.85-0.056-1.304-0.111c-0.425-0.056-0.878-0.084-1.303-0.14   c-7.396-1.061-14.282-4.8-19.213-10.772C31.493,61.321,40.136,56.298,49.997,56.298L49.997,56.298z"/></g></symbol></svg>